<svg width="32" height="36" viewBox="0 0 32 36" fill="none" xmlns="http://www.w3.org/2000/svg">
<path d="M30.952 0H26.8385C26.4321 0 26.0622 0.236602 25.8896 0.607008L22.3405 8.22656H12.0357L15.9805 4.25412C16.3897 3.84209 16.3893 3.17355 15.9795 2.76195C12.3291 -0.903867 6.38994 -0.910547 2.73989 2.76279C-0.928405 6.45448 -0.898153 12.4336 2.73989 16.095C3.14888 16.5066 3.81295 16.5068 4.22215 16.0947L8.59483 11.6915C8.59483 11.6915 9.1949 16.9564 11.2497 35.065C11.3102 35.5977 11.7582 36 12.2909 36H25.2021C25.7349 36 26.1829 35.5977 26.2433 35.065C26.4632 33.1272 28.9032 11.6185 29.1566 9.40184C29.2281 8.77648 28.7418 8.22663 28.1155 8.22663H24.6552L27.5047 2.10945H30.952C31.5308 2.10945 32 1.63723 32 1.05476C32 0.472289 31.5308 0 30.952 0ZM3.53433 5.05484L6.8287 8.37422H2.17216C2.3413 7.19578 2.79501 6.05145 3.53433 5.05484ZM3.53398 13.8038C2.79438 12.8071 2.34081 11.6622 2.1716 10.4836H6.83107L3.53398 13.8038ZM8.30866 6.88057L5.01618 3.56309C6.00442 2.82087 7.13932 2.3644 8.30866 2.19431V6.88057ZM10.4046 2.1953C11.5752 2.36524 12.7128 2.82052 13.7033 3.56323L10.4046 6.88507V2.1953ZM15.2952 33.8906H13.2261L11.6274 19.8022C13.4958 19.5948 15.2951 21.0647 15.2951 23.1258L15.2952 33.8906ZM24.2604 33.8906H22.1909V23.1258C22.1909 21.0604 23.9899 19.5915 25.8652 19.8021L24.2604 33.8906ZM26.1024 17.7096C22.8827 17.3557 20.095 19.899 20.095 23.1258V33.8906H17.3912V23.1258C17.3912 19.8899 14.5885 17.3592 11.389 17.7097L11.0911 15.1031H26.3967L26.1024 17.7096ZM26.9401 10.3359L26.6362 12.9937H10.8513L10.5513 10.3359H26.9401Z" fill="#32B35D"/>
</svg>
