<svg width="32" height="36" viewBox="0 0 32 36" fill="none" xmlns="http://www.w3.org/2000/svg">
<path d="M2.06452 0V6.35294H0V8.47059H2.06452V11.6471H0V13.7647H2.06452V16.9412H0V19.0588H2.06452V22.2353H0V24.3529H2.06452V27.5294H0V29.6471H2.06452V36H32V0C30.8737 0 3.3461 0 2.06452 0ZM8.25806 33.8824H4.12903V29.6471H6.19355V27.5294H4.12903V24.3529H6.19355V22.2353H4.12903V19.0588H6.19355V16.9412H4.12903V13.7647H6.19355V11.6471H4.12903V8.47059H6.19355V6.35294H4.12903V2.11765H8.25806V33.8824ZM29.9355 33.8824H10.3226V2.11765H29.9355V33.8824Z" fill="#32B35D"/>
<path d="M18.0645 23.2941H22.1935C25.324 23.2941 27.871 20.6816 27.871 17.4706V14.8235H25.6919C26.3202 12.1122 24.3024 9.52941 21.6129 9.52941C20.2254 9.52941 18.9326 10.2431 18.158 11.3941C16.3596 11.5378 14.9144 12.9917 14.73 14.8235H12.3871V17.4706C12.3871 20.6816 14.934 23.2941 18.0645 23.2941ZM18.6372 13.5107L19.3709 13.5925L19.6837 12.9069C20.0329 12.1416 20.7902 11.6471 21.6129 11.6471C22.7868 11.6471 23.7419 12.6268 23.7419 13.8309C23.7419 14.1832 23.6609 14.5192 23.5085 14.8236H16.8197C17.0099 14.0015 17.7716 13.4137 18.6372 13.5107ZM14.4516 16.9412H25.8065V17.4706C25.8065 19.514 24.1857 21.1765 22.1935 21.1765H18.0645C16.0724 21.1765 14.4516 19.514 14.4516 17.4706V16.9412Z" fill="#32B35D"/>
<path d="M12.3871 25.4118H27.871V27.5294H12.3871V25.4118Z" fill="#32B35D"/>
<path d="M16.5161 29.6471H23.7419V31.7647H16.5161V29.6471Z" fill="#32B35D"/>
<path d="M17.6783 4.23529H19.7428V7.41177H17.6783V4.23529Z" fill="#32B35D"/>
<path d="M13.5493 5.29412H15.6138V9.52941H13.5493V5.29412Z" fill="#32B35D"/>
</svg>
