<svg width="36" height="36" viewBox="0 0 48 36" fill="none" xmlns="http://www.w3.org/2000/svg">
<path d="M45.003 27.279C45.087 19.872 41.358 12.987 34.974 9.087C32.802 7.761 30.45 6.906 28.047 6.432C28.329 5.844 28.5 5.193 28.5 4.5C28.5 2.019 26.481 0 24 0C21.519 0 19.5 2.019 19.5 4.5C19.5 5.193 19.671 5.844 19.953 6.432C17.55 6.906 15.198 7.758 13.026 9.084C6.642 12.984 2.913 19.869 2.997 27.276C1.257 27.9 0 29.547 0 31.5C0 33.981 2.019 36 4.5 36H43.5C45.981 36 48 33.981 48 31.5C48 29.547 46.743 27.9 45.003 27.279ZM24 3C24.825 3 25.5 3.675 25.5 4.5C25.5 5.31 24.852 5.964 24.048 5.991C24.015 5.991 23.982 5.991 23.952 5.991C23.148 5.964 22.5 5.31 22.5 4.5C22.5 3.675 23.175 3 24 3ZM14.589 11.646C17.469 9.888 20.694 9.006 23.922 8.994C23.949 8.991 23.973 9 24 9C24.027 9 24.051 8.994 24.078 8.991C27.306 9.006 30.531 9.885 33.408 11.643C38.814 14.946 42 20.742 42.009 27H5.991C6 20.742 9.186 14.946 14.589 11.646ZM43.5 33H4.5C3.675 33 3 32.325 3 31.5C3 30.675 3.675 30 4.5 30H43.5C44.325 30 45 30.675 45 31.5C45 32.325 44.325 33 43.5 33Z" fill="#32B35D"/>
<path d="M35.169 16.989C32.325 13.818 28.257 12 24 12C23.172 12 22.5 12.672 22.5 13.5C22.5 14.328 23.172 15 24 15C27.405 15 30.663 16.455 32.937 18.993C33.234 19.323 33.642 19.491 34.053 19.491C34.41 19.491 34.767 19.365 35.055 19.107C35.67 18.552 35.724 17.607 35.169 16.989Z" fill="#32B35D"/>
</svg>
