<svg width="32" height="32" viewBox="0 0 32 32" fill="none" xmlns="http://www.w3.org/2000/svg">
<path d="M16 0C7.16437 0 0 7.16328 0 16C0 24.8367 7.16367 32 16 32C24.837 32 32 24.8367 32 16C32 7.16328 24.837 0 16 0ZM16 4.78419C18.9237 4.78419 21.2928 7.15414 21.2928 10.0765C21.2928 12.9996 18.9237 15.3689 16 15.3689C13.0777 15.3689 10.7086 12.9996 10.7086 10.0765C10.7086 7.15414 13.0777 4.78419 16 4.78419ZM15.9965 27.8167C13.0806 27.8167 10.4099 26.7548 8.35 24.997C7.84819 24.5689 7.55864 23.9413 7.55864 23.2828C7.55864 20.3189 9.9573 17.9468 12.9217 17.9468H19.0797C22.0448 17.9468 24.4343 20.3189 24.4343 23.2828C24.4343 23.942 24.1462 24.5682 23.6437 24.9963C21.5845 26.7548 18.9131 27.8167 15.9965 27.8167Z" fill="#32B35D"/>
</svg>
