<svg width="32" height="32" viewBox="0 0 32 32" fill="none" xmlns="http://www.w3.org/2000/svg">
<circle cx="16" cy="16" r="16" fill="#32B35D"/>
<path d="M15.75 10.5C12.8555 10.5 10.5 12.8551 10.5 15.75C10.5 16.1642 10.8354 16.5 11.25 16.5C11.6646 16.5 12 16.1642 12 15.75C12 13.6824 13.6824 12 15.75 12C16.1646 12 16.5 11.6642 16.5 11.25C16.5 10.8358 16.1646 10.5 15.75 10.5Z" fill="white"/>
<path d="M29.3408 26.1592L25.2293 22.0477C25.6791 21.1979 25.5565 20.1246 24.8408 19.4092C24.8265 19.3949 24.8095 19.3855 24.7949 19.3717C25.2454 18.2506 25.5 17.0303 25.5 15.75C25.5 10.3737 21.126 6 15.75 6C10.374 6 6 10.3737 6 15.75C6 21.1263 10.374 25.5 15.75 25.5C17.0303 25.5 18.2506 25.2454 19.3716 24.7949C19.3855 24.8095 19.3949 24.8265 19.4092 24.8408C19.8486 25.2803 20.4243 25.5 21 25.5C21.3618 25.5 21.7197 25.4029 22.0477 25.2293L26.1592 29.3408C26.5986 29.7803 27.1743 30 27.75 30C28.3257 30 28.9014 29.7803 29.3408 29.3408C30.2197 28.4623 30.2197 27.0377 29.3408 26.1592ZM9 15.75C9 12.0282 12.0278 9 15.75 9C19.4721 9 22.5 12.0282 22.5 15.75C22.5 19.4718 19.4721 22.5 15.75 22.5C12.0278 22.5 9 19.4718 9 15.75Z" fill="white"/>
</svg>
